<svg xmlns="http://www.w3.org/2000/svg" version="1.1" xmlns:xlink="http://www.w3.org/1999/xlink" viewBox="0 0 100 100" opacity="1" width="100" height="100">
    <g fill="rgba(0,0,0,0.12)">
        <circle cx="10" cy="10" r="3.5" fill="rgba(0,0,0,0.18)" />
        <circle cx="30" cy="10" r="1.5" />
        <circle cx="50" cy="10" r="1.5" />
        <circle cx="70" cy="10" r="1.5" />
        <circle cx="90" cy="10" r="1.5" />

        <circle cx="10" cy="30" r="1.5" />
        <circle cx="30" cy="30" r="1.5" />
        <circle cx="50" cy="30" r="1.5" />
        <circle cx="70" cy="30" r="1.5" />
        <circle cx="90" cy="30" r="1.5" />

        <circle cx="10" cy="50" r="1.5" />
        <circle cx="30" cy="50" r="1.5" />
        <circle cx="50" cy="50" r="1.5" />
        <circle cx="70" cy="50" r="1.5" />
        <circle cx="90" cy="50" r="1.5" />

        <circle cx="10" cy="70" r="1.5" />
        <circle cx="30" cy="70" r="1.5" />
        <circle cx="50" cy="70" r="1.5" />
        <circle cx="70" cy="70" r="1.5" />
        <circle cx="90" cy="70" r="1.5" />

        <circle cx="10" cy="90" r="1.5" />
        <circle cx="30" cy="90" r="1.5" />
        <circle cx="50" cy="90" r="1.5" />
        <circle cx="70" cy="90" r="1.5" />
        <circle cx="90" cy="90" r="1.5" />

        <circle cx="10" cy="110" r="1.5" />
        <circle cx="30" cy="110" r="1.5" />
        <circle cx="50" cy="110" r="1.5" />
        <circle cx="70" cy="110" r="1.5" />
        <circle cx="90" cy="110" r="1.5" />
    </g>
</svg>